<?xml version="1.0" encoding="UTF-8"?>
<svg version="1.1" xmlns="http://www.w3.org/2000/svg" width="1188" height="1188">
<path d="M0 0 C43.56 0 87.12 0 132 0 C132 14.52 132 29.04 132 44 C146.52 44 161.04 44 176 44 C176 58.52 176 73.04 176 88 C190.52 88 205.04 88 220 88 C220 102.52 220 117.04 220 132 C234.52 132 249.04 132 264 132 C264 146.52 264 161.04 264 176 C278.52 176 293.04 176 308 176 C308 263.12 308 350.24 308 440 C322.52 440 337.04 440 352 440 C352 454.52 352 469.04 352 484 C366.52 484 381.04 484 396 484 C396 513.04 396 542.08 396 572 C410.52 572 425.04 572 440 572 C440 630.08 440 688.16 440 748 C425.48 748 410.96 748 396 748 C396 762.52 396 777.04 396 792 C352.44 792 308.88 792 264 792 C264 806.52 264 821.04 264 836 C278.52 836 293.04 836 308 836 C308 850.52 308 865.04 308 880 C322.52 880 337.04 880 352 880 C352 894.52 352 909.04 352 924 C381.04 924 410.08 924 440 924 C440 938.52 440 953.04 440 968 C454.52 968 469.04 968 484 968 C484 997.04 484 1026.08 484 1056 C353.32 1056 222.64 1056 88 1056 C88 1012.44 88 968.88 88 924 C73.48 924 58.96 924 44 924 C44 909.48 44 894.96 44 880 C29.48 880 14.96 880 0 880 C0 894.52 0 909.04 0 924 C-14.52 924 -29.04 924 -44 924 C-44 967.56 -44 1011.12 -44 1056 C-174.68 1056 -305.36 1056 -440 1056 C-440 1026.96 -440 997.92 -440 968 C-425.48 968 -410.96 968 -396 968 C-396 953.48 -396 938.96 -396 924 C-366.96 924 -337.92 924 -308 924 C-308 909.48 -308 894.96 -308 880 C-293.48 880 -278.96 880 -264 880 C-264 865.48 -264 850.96 -264 836 C-249.48 836 -234.96 836 -220 836 C-220 821.48 -220 806.96 -220 792 C-263.56 792 -307.12 792 -352 792 C-352 777.48 -352 762.96 -352 748 C-366.52 748 -381.04 748 -396 748 C-396 689.92 -396 631.84 -396 572 C-381.48 572 -366.96 572 -352 572 C-352 542.96 -352 513.92 -352 484 C-337.48 484 -322.96 484 -308 484 C-308 469.48 -308 454.96 -308 440 C-278.96 440 -249.92 440 -220 440 C-220 425.48 -220 410.96 -220 396 C-205.48 396 -190.96 396 -176 396 C-176 381.48 -176 366.96 -176 352 C-190.52 352 -205.04 352 -220 352 C-220 308.44 -220 264.88 -220 220 C-205.48 220 -190.96 220 -176 220 C-176 190.96 -176 161.92 -176 132 C-161.48 132 -146.96 132 -132 132 C-132 117.48 -132 102.96 -132 88 C-117.48 88 -102.96 88 -88 88 C-88 73.48 -88 58.96 -88 44 C-58.96 44 -29.92 44 0 44 C0 29.48 0 14.96 0 0 Z M220 308 C220 322.52 220 337.04 220 352 C234.52 352 249.04 352 264 352 C264 337.48 264 322.96 264 308 C249.48 308 234.96 308 220 308 Z M-220 748 C-220 762.52 -220 777.04 -220 792 C-205.48 792 -190.96 792 -176 792 C-176 777.48 -176 762.96 -176 748 C-190.52 748 -205.04 748 -220 748 Z M220 748 C220 762.52 220 777.04 220 792 C234.52 792 249.04 792 264 792 C264 777.48 264 762.96 264 748 C249.48 748 234.96 748 220 748 Z " fill="#00BCD4" transform="translate(572,88)"/>
<path d="M0 0 C14.52 0 29.04 0 44 0 C44 87.12 44 174.24 44 264 C58.52 264 73.04 264 88 264 C88 278.52 88 293.04 88 308 C102.52 308 117.04 308 132 308 C132 337.04 132 366.08 132 396 C146.52 396 161.04 396 176 396 C176 454.08 176 512.16 176 572 C161.48 572 146.96 572 132 572 C132 586.52 132 601.04 132 616 C88.44 616 44.88 616 0 616 C0 630.52 0 645.04 0 660 C14.52 660 29.04 660 44 660 C44 674.52 44 689.04 44 704 C58.52 704 73.04 704 88 704 C88 718.52 88 733.04 88 748 C117.04 748 146.08 748 176 748 C176 762.52 176 777.04 176 792 C190.52 792 205.04 792 220 792 C220 821.04 220 850.08 220 880 C89.32 880 -41.36 880 -176 880 C-176 836.44 -176 792.88 -176 748 C-190.52 748 -205.04 748 -220 748 C-220 733.48 -220 718.96 -220 704 C-234.52 704 -249.04 704 -264 704 C-264 689.48 -264 674.96 -264 660 C-234.96 660 -205.92 660 -176 660 C-176 645.48 -176 630.96 -176 616 C-146.96 616 -117.92 616 -88 616 C-88 543.4 -88 470.8 -88 396 C-160.6 396 -233.2 396 -308 396 C-308 381.48 -308 366.96 -308 352 C-235.4 352 -162.8 352 -88 352 C-88 337.48 -88 322.96 -88 308 C-73.48 308 -58.96 308 -44 308 C-44 293.48 -44 278.96 -44 264 C-29.48 264 -14.96 264 0 264 C0 176.88 0 89.76 0 0 Z M-44 572 C-44 586.52 -44 601.04 -44 616 C-29.48 616 -14.96 616 0 616 C0 601.48 0 586.96 0 572 C-14.52 572 -29.04 572 -44 572 Z " fill="#00BCD4" transform="translate(836,264)"/>
<path d="M0 0 C43.56 0 87.12 0 132 0 C132 14.52 132 29.04 132 44 C146.52 44 161.04 44 176 44 C176 58.52 176 73.04 176 88 C190.52 88 205.04 88 220 88 C220 102.52 220 117.04 220 132 C234.52 132 249.04 132 264 132 C264 190.08 264 248.16 264 308 C249.48 308 234.96 308 220 308 C220 322.52 220 337.04 220 352 C234.52 352 249.04 352 264 352 C264 381.04 264 410.08 264 440 C249.48 440 234.96 440 220 440 C220 454.52 220 469.04 220 484 C147.4 484 74.8 484 0 484 C0 469.48 0 454.96 0 440 C43.56 440 87.12 440 132 440 C132 425.48 132 410.96 132 396 C102.96 396 73.92 396 44 396 C44 366.96 44 337.92 44 308 C73.04 308 102.08 308 132 308 C132 293.48 132 278.96 132 264 C73.92 264 15.84 264 -44 264 C-44 278.52 -44 293.04 -44 308 C-58.52 308 -73.04 308 -88 308 C-88 351.56 -88 395.12 -88 440 C-102.52 440 -117.04 440 -132 440 C-132 323.84 -132 207.68 -132 88 C-117.48 88 -102.96 88 -88 88 C-88 73.48 -88 58.96 -88 44 C-58.96 44 -29.92 44 0 44 C0 29.48 0 14.96 0 0 Z " fill="#2196F3" transform="translate(572,88)"/>
<path d="M0 0 C58.08 0 116.16 0 176 0 C176 14.52 176 29.04 176 44 C190.52 44 205.04 44 220 44 C220 58.52 220 73.04 220 88 C234.52 88 249.04 88 264 88 C264 102.52 264 117.04 264 132 C293.04 132 322.08 132 352 132 C352 146.52 352 161.04 352 176 C366.52 176 381.04 176 396 176 C396 205.04 396 234.08 396 264 C265.32 264 134.64 264 0 264 C0 220.44 0 176.88 0 132 C-14.52 132 -29.04 132 -44 132 C-44 117.48 -44 102.96 -44 88 C-58.52 88 -73.04 88 -88 88 C-88 73.48 -88 58.96 -88 44 C-58.96 44 -29.92 44 0 44 C0 29.48 0 14.96 0 0 Z " fill="#2196F3" transform="translate(660,880)"/>
<path d="M0 0 C14.52 0 29.04 0 44 0 C44 14.52 44 29.04 44 44 C58.52 44 73.04 44 88 44 C88 58.52 88 73.04 88 88 C131.56 88 175.12 88 220 88 C220 102.52 220 117.04 220 132 C205.48 132 190.96 132 176 132 C176 175.56 176 219.12 176 264 C45.32 264 -85.36 264 -220 264 C-220 234.96 -220 205.92 -220 176 C-205.48 176 -190.96 176 -176 176 C-176 161.48 -176 146.96 -176 132 C-146.96 132 -117.92 132 -88 132 C-88 117.48 -88 102.96 -88 88 C-73.48 88 -58.96 88 -44 88 C-44 73.48 -44 58.96 -44 44 C-29.48 44 -14.96 44 0 44 C0 29.48 0 14.96 0 0 Z " fill="#2196F3" transform="translate(352,880)"/>
<path d="M0 0 C29.04 0 58.08 0 88 0 C88 14.52 88 29.04 88 44 C102.52 44 117.04 44 132 44 C132 73.04 132 102.08 132 132 C146.52 132 161.04 132 176 132 C176 117.48 176 102.96 176 88 C190.52 88 205.04 88 220 88 C220 160.6 220 233.2 220 308 C205.48 308 190.96 308 176 308 C176 293.48 176 278.96 176 264 C161.48 264 146.96 264 132 264 C132 278.52 132 293.04 132 308 C88.44 308 44.88 308 0 308 C0 293.48 0 278.96 0 264 C-14.52 264 -29.04 264 -44 264 C-44 205.92 -44 147.84 -44 88 C-29.48 88 -14.96 88 0 88 C0 58.96 0 29.92 0 0 Z " fill="#2196F3" transform="translate(220,572)"/>
<path d="M0 0 C101.64 0 203.28 0 308 0 C308 29.04 308 58.08 308 88 C278.96 88 249.92 88 220 88 C220 102.52 220 117.04 220 132 C190.96 132 161.92 132 132 132 C132 146.52 132 161.04 132 176 C88.44 176 44.88 176 0 176 C0 161.48 0 146.96 0 132 C-14.52 132 -29.04 132 -44 132 C-44 117.48 -44 102.96 -44 88 C-29.48 88 -14.96 88 0 88 C0 58.96 0 29.92 0 0 Z " fill="#2196F3" transform="translate(440,792)"/>
<path d="M0 0 C29.04 0 58.08 0 88 0 C88 29.04 88 58.08 88 88 C102.52 88 117.04 88 132 88 C132 146.08 132 204.16 132 264 C117.48 264 102.96 264 88 264 C88 278.52 88 293.04 88 308 C44.44 308 0.88 308 -44 308 C-44 264.44 -44 220.88 -44 176 C-29.48 176 -14.96 176 0 176 C0 161.48 0 146.96 0 132 C-14.52 132 -29.04 132 -44 132 C-44 102.96 -44 73.92 -44 44 C-29.48 44 -14.96 44 0 44 C0 29.48 0 14.96 0 0 Z " fill="#2196F3" transform="translate(880,572)"/>
<path d="M0 0 C58.08 0 116.16 0 176 0 C176 14.52 176 29.04 176 44 C146.96 44 117.92 44 88 44 C88 73.04 88 102.08 88 132 C117.04 132 146.08 132 176 132 C176 146.52 176 161.04 176 176 C132.44 176 88.88 176 44 176 C44 190.52 44 205.04 44 220 C102.08 220 160.16 220 220 220 C220 234.52 220 249.04 220 264 C147.4 264 74.8 264 0 264 C0 234.96 0 205.92 0 176 C-14.52 176 -29.04 176 -44 176 C-44 132.44 -44 88.88 -44 44 C-29.48 44 -14.96 44 0 44 C0 29.48 0 14.96 0 0 Z " fill="#FFFFFF" transform="translate(528,352)"/>
<path d="M0 0 C43.56 0 87.12 0 132 0 C132 14.52 132 29.04 132 44 C146.52 44 161.04 44 176 44 C176 58.52 176 73.04 176 88 C190.52 88 205.04 88 220 88 C220 102.52 220 117.04 220 132 C234.52 132 249.04 132 264 132 C264 146.52 264 161.04 264 176 C220.44 176 176.88 176 132 176 C132 190.52 132 205.04 132 220 C117.48 220 102.96 220 88 220 C88 190.96 88 161.92 88 132 C73.48 132 58.96 132 44 132 C44 117.48 44 102.96 44 88 C0.44 88 -43.12 88 -88 88 C-88 73.48 -88 58.96 -88 44 C-58.96 44 -29.92 44 0 44 C0 29.48 0 14.96 0 0 Z " fill="#00BCD4" transform="translate(572,88)"/>
<path d="M0 0 C43.56 0 87.12 0 132 0 C132 29.04 132 58.08 132 88 C146.52 88 161.04 88 176 88 C176 73.48 176 58.96 176 44 C190.52 44 205.04 44 220 44 C220 73.04 220 102.08 220 132 C205.48 132 190.96 132 176 132 C176 146.52 176 161.04 176 176 C103.4 176 30.8 176 -44 176 C-44 161.48 -44 146.96 -44 132 C-0.44 132 43.12 132 88 132 C88 117.48 88 102.96 88 88 C58.96 88 29.92 88 0 88 C0 58.96 0 29.92 0 0 Z " fill="#FFECB3" transform="translate(616,396)"/>
<path d="M0 0 C14.52 0 29.04 0 44 0 C44 29.04 44 58.08 44 88 C145.64 88 247.28 88 352 88 C352 73.48 352 58.96 352 44 C366.52 44 381.04 44 396 44 C396 73.04 396 102.08 396 132 C265.32 132 134.64 132 0 132 C0 88.44 0 44.88 0 0 Z " fill="#000000" transform="translate(660,1012)"/>
<path d="M0 0 C14.52 0 29.04 0 44 0 C44 43.56 44 87.12 44 132 C-86.68 132 -217.36 132 -352 132 C-352 102.96 -352 73.92 -352 44 C-337.48 44 -322.96 44 -308 44 C-308 58.52 -308 73.04 -308 88 C-206.36 88 -104.72 88 0 88 C0 58.96 0 29.92 0 0 Z " fill="#000000" transform="translate(484,1012)"/>
<path d="M0 0 C14.52 0 29.04 0 44 0 C44 14.52 44 29.04 44 44 C58.52 44 73.04 44 88 44 C88 58.52 88 73.04 88 88 C131.56 88 175.12 88 220 88 C220 102.52 220 117.04 220 132 C190.96 132 161.92 132 132 132 C132 146.52 132 161.04 132 176 C117.48 176 102.96 176 88 176 C88 161.48 88 146.96 88 132 C73.48 132 58.96 132 44 132 C44 117.48 44 102.96 44 88 C29.48 88 14.96 88 0 88 C0 102.52 0 117.04 0 132 C-29.04 132 -58.08 132 -88 132 C-88 117.48 -88 102.96 -88 88 C-73.48 88 -58.96 88 -44 88 C-44 73.48 -44 58.96 -44 44 C-29.48 44 -14.96 44 0 44 C0 29.48 0 14.96 0 0 Z " fill="#00BCD4" transform="translate(352,880)"/>
<path d="M0 0 C58.08 0 116.16 0 176 0 C176 14.52 176 29.04 176 44 C161.48 44 146.96 44 132 44 C132 58.52 132 73.04 132 88 C102.96 88 73.92 88 44 88 C44 102.52 44 117.04 44 132 C14.96 132 -14.08 132 -44 132 C-44 117.48 -44 102.96 -44 88 C-58.52 88 -73.04 88 -88 88 C-88 73.48 -88 58.96 -88 44 C-58.96 44 -29.92 44 0 44 C0 29.48 0 14.96 0 0 Z " fill="#00BCD4" transform="translate(660,880)"/>
<path d="M0 0 C14.52 0 29.04 0 44 0 C44 101.64 44 203.28 44 308 C14.96 308 -14.08 308 -44 308 C-44 293.48 -44 278.96 -44 264 C-29.48 264 -14.96 264 0 264 C0 249.48 0 234.96 0 220 C-14.52 220 -29.04 220 -44 220 C-44 176.44 -44 132.88 -44 88 C-29.48 88 -14.96 88 0 88 C0 58.96 0 29.92 0 0 Z " fill="#00BCD4" transform="translate(396,220)"/>
<path d="M0 0 C14.52 0 29.04 0 44 0 C44 29.04 44 58.08 44 88 C58.52 88 73.04 88 88 88 C88 117.04 88 146.08 88 176 C146.08 176 204.16 176 264 176 C264 190.52 264 205.04 264 220 C191.4 220 118.8 220 44 220 C44 190.96 44 161.92 44 132 C29.48 132 14.96 132 0 132 C0 88.44 0 44.88 0 0 Z " fill="#FFECB3" transform="translate(484,396)"/>
<path d="M0 0 C14.52 0 29.04 0 44 0 C44 14.52 44 29.04 44 44 C73.04 44 102.08 44 132 44 C132 58.52 132 73.04 132 88 C117.48 88 102.96 88 88 88 C88 117.04 88 146.08 88 176 C73.48 176 58.96 176 44 176 C44 190.52 44 205.04 44 220 C29.48 220 14.96 220 0 220 C0 147.4 0 74.8 0 0 Z " fill="#000000" transform="translate(748,660)"/>
<path d="M0 0 C14.52 0 29.04 0 44 0 C44 72.6 44 145.2 44 220 C29.48 220 14.96 220 0 220 C0 205.48 0 190.96 0 176 C-14.52 176 -29.04 176 -44 176 C-44 146.96 -44 117.92 -44 88 C-58.52 88 -73.04 88 -88 88 C-88 73.48 -88 58.96 -88 44 C-58.96 44 -29.92 44 0 44 C0 29.48 0 14.96 0 0 Z " fill="#000000" transform="translate(396,660)"/>
<path d="M0 0 C14.52 0 29.04 0 44 0 C44 87.12 44 174.24 44 264 C58.52 264 73.04 264 88 264 C88 278.52 88 293.04 88 308 C44.44 308 0.88 308 -44 308 C-44 293.48 -44 278.96 -44 264 C-29.48 264 -14.96 264 0 264 C0 176.88 0 89.76 0 0 Z " fill="#000000" transform="translate(836,264)"/>
<path d="M0 0 C14.52 0 29.04 0 44 0 C44 14.52 44 29.04 44 44 C58.52 44 73.04 44 88 44 C88 58.52 88 73.04 88 88 C44.44 88 0.88 88 -44 88 C-44 102.52 -44 117.04 -44 132 C-58.52 132 -73.04 132 -88 132 C-88 102.96 -88 73.92 -88 44 C-58.96 44 -29.92 44 0 44 C0 29.48 0 14.96 0 0 Z " fill="#000000" transform="translate(748,176)"/>
<path d="M0 0 C43.56 0 87.12 0 132 0 C132 14.52 132 29.04 132 44 C102.96 44 73.92 44 44 44 C44 58.52 44 73.04 44 88 C0.44 88 -43.12 88 -88 88 C-88 73.48 -88 58.96 -88 44 C-58.96 44 -29.92 44 0 44 C0 29.48 0 14.96 0 0 Z " fill="#000000" transform="translate(572,88)"/>
<path d="M0 0 C72.6 0 145.2 0 220 0 C220 14.52 220 29.04 220 44 C147.4 44 74.8 44 0 44 C0 29.48 0 14.96 0 0 Z " fill="#000000" transform="translate(528,616)"/>
<path d="M0 0 C43.56 0 87.12 0 132 0 C132 43.56 132 87.12 132 132 C117.48 132 102.96 132 88 132 C88 102.96 88 73.92 88 44 C58.96 44 29.92 44 0 44 C0 29.48 0 14.96 0 0 Z " fill="#2196F3" transform="translate(704,264)"/>
<path d="M0 0 C14.52 0 29.04 0 44 0 C44 58.08 44 116.16 44 176 C29.48 176 14.96 176 0 176 C0 117.92 0 59.84 0 0 Z " fill="#000000" transform="translate(968,660)"/>
<path d="M0 0 C14.52 0 29.04 0 44 0 C44 58.08 44 116.16 44 176 C29.48 176 14.96 176 0 176 C0 117.92 0 59.84 0 0 Z " fill="#000000" transform="translate(176,660)"/>
<path d="M0 0 C58.08 0 116.16 0 176 0 C176 14.52 176 29.04 176 44 C117.92 44 59.84 44 0 44 C0 29.48 0 14.96 0 0 Z " fill="#000000" transform="translate(572,528)"/>
<path d="M0 0 C29.04 0 58.08 0 88 0 C88 29.04 88 58.08 88 88 C58.96 88 29.92 88 0 88 C0 58.96 0 29.92 0 0 Z " fill="#000000" transform="translate(616,396)"/>
<path d="M0 0 C14.52 0 29.04 0 44 0 C44 14.52 44 29.04 44 44 C58.52 44 73.04 44 88 44 C88 58.52 88 73.04 88 88 C58.96 88 29.92 88 0 88 C0 58.96 0 29.92 0 0 Z " fill="#000000" transform="translate(836,924)"/>
<path d="M0 0 C14.52 0 29.04 0 44 0 C44 29.04 44 58.08 44 88 C14.96 88 -14.08 88 -44 88 C-44 73.48 -44 58.96 -44 44 C-29.48 44 -14.96 44 0 44 C0 29.48 0 14.96 0 0 Z " fill="#000000" transform="translate(308,924)"/>
<path d="M0 0 C43.56 0 87.12 0 132 0 C132 14.52 132 29.04 132 44 C88.44 44 44.88 44 0 44 C0 29.48 0 14.96 0 0 Z " fill="#000000" transform="translate(836,836)"/>
<path d="M0 0 C43.56 0 87.12 0 132 0 C132 14.52 132 29.04 132 44 C88.44 44 44.88 44 0 44 C0 29.48 0 14.96 0 0 Z " fill="#000000" transform="translate(220,836)"/>
<path d="M0 0 C14.52 0 29.04 0 44 0 C44 29.04 44 58.08 44 88 C14.96 88 -14.08 88 -44 88 C-44 73.48 -44 58.96 -44 44 C-29.48 44 -14.96 44 0 44 C0 29.48 0 14.96 0 0 Z " fill="#000000" transform="translate(396,440)"/>
<path d="M0 0 C14.52 0 29.04 0 44 0 C44 43.56 44 87.12 44 132 C29.48 132 14.96 132 0 132 C0 88.44 0 44.88 0 0 Z " fill="#FFECB3" transform="translate(704,396)"/>
<path d="M0 0 C14.52 0 29.04 0 44 0 C44 43.56 44 87.12 44 132 C29.48 132 14.96 132 0 132 C0 88.44 0 44.88 0 0 Z " fill="#000000" transform="translate(352,308)"/>
<path d="M0 0 C29.04 0 58.08 0 88 0 C88 14.52 88 29.04 88 44 C58.96 44 29.92 44 0 44 C0 29.48 0 14.96 0 0 Z " fill="#000000" transform="translate(924,1012)"/>
<path d="M0 0 C29.04 0 58.08 0 88 0 C88 14.52 88 29.04 88 44 C58.96 44 29.92 44 0 44 C0 29.48 0 14.96 0 0 Z " fill="#000000" transform="translate(176,1012)"/>
<path d="M0 0 C14.52 0 29.04 0 44 0 C44 29.04 44 58.08 44 88 C29.48 88 14.96 88 0 88 C0 58.96 0 29.92 0 0 Z " fill="#000000" transform="translate(924,572)"/>
<path d="M0 0 C14.52 0 29.04 0 44 0 C44 29.04 44 58.08 44 88 C29.48 88 14.96 88 0 88 C0 58.96 0 29.92 0 0 Z " fill="#000000" transform="translate(220,572)"/>
<path d="M0 0 C29.04 0 58.08 0 88 0 C88 14.52 88 29.04 88 44 C58.96 44 29.92 44 0 44 C0 29.48 0 14.96 0 0 Z " fill="#000000" transform="translate(264,528)"/>
<path d="M0 0 C14.52 0 29.04 0 44 0 C44 29.04 44 58.08 44 88 C29.48 88 14.96 88 0 88 C0 58.96 0 29.92 0 0 Z " fill="#000000" transform="translate(748,396)"/>
<path d="M0 0 C29.04 0 58.08 0 88 0 C88 14.52 88 29.04 88 44 C58.96 44 29.92 44 0 44 C0 29.48 0 14.96 0 0 Z " fill="#2196F3" transform="translate(704,352)"/>
<path d="M0 0 C29.04 0 58.08 0 88 0 C88 14.52 88 29.04 88 44 C58.96 44 29.92 44 0 44 C0 29.48 0 14.96 0 0 Z " fill="#000000" transform="translate(704,308)"/>
<path d="M0 0 C29.04 0 58.08 0 88 0 C88 14.52 88 29.04 88 44 C58.96 44 29.92 44 0 44 C0 29.48 0 14.96 0 0 Z " fill="#00BCD4" transform="translate(704,264)"/>
<path d="M0 0 C14.52 0 29.04 0 44 0 C44 29.04 44 58.08 44 88 C29.48 88 14.96 88 0 88 C0 58.96 0 29.92 0 0 Z " fill="#000000" transform="translate(396,220)"/>
<path d="M0 0 C14.52 0 29.04 0 44 0 C44 14.52 44 29.04 44 44 C29.48 44 14.96 44 0 44 C0 29.48 0 14.96 0 0 Z " fill="#000000" transform="translate(616,968)"/>
<path d="M0 0 C14.52 0 29.04 0 44 0 C44 14.52 44 29.04 44 44 C29.48 44 14.96 44 0 44 C0 29.48 0 14.96 0 0 Z " fill="#000000" transform="translate(528,968)"/>
<path d="M0 0 C14.52 0 29.04 0 44 0 C44 14.52 44 29.04 44 44 C29.48 44 14.96 44 0 44 C0 29.48 0 14.96 0 0 Z " fill="#000000" transform="translate(572,924)"/>
<path d="M0 0 C14.52 0 29.04 0 44 0 C44 14.52 44 29.04 44 44 C29.48 44 14.96 44 0 44 C0 29.48 0 14.96 0 0 Z " fill="#000000" transform="translate(792,880)"/>
<path d="M0 0 C14.52 0 29.04 0 44 0 C44 14.52 44 29.04 44 44 C29.48 44 14.96 44 0 44 C0 29.48 0 14.96 0 0 Z " fill="#000000" transform="translate(352,880)"/>
<path d="M0 0 C14.52 0 29.04 0 44 0 C44 14.52 44 29.04 44 44 C29.48 44 14.96 44 0 44 C0 29.48 0 14.96 0 0 Z " fill="#000000" transform="translate(748,572)"/>
<path d="M0 0 C14.52 0 29.04 0 44 0 C44 14.52 44 29.04 44 44 C29.48 44 14.96 44 0 44 C0 29.48 0 14.96 0 0 Z " fill="#000000" transform="translate(484,572)"/>
<path d="M0 0 C14.52 0 29.04 0 44 0 C44 14.52 44 29.04 44 44 C29.48 44 14.96 44 0 44 C0 29.48 0 14.96 0 0 Z " fill="#FFECB3" transform="translate(748,528)"/>
<path d="M0 0 C14.52 0 29.04 0 44 0 C44 14.52 44 29.04 44 44 C29.48 44 14.96 44 0 44 C0 29.48 0 14.96 0 0 Z " fill="#2196F3" transform="translate(484,528)"/>
<path d="M0 0 C14.52 0 29.04 0 44 0 C44 14.52 44 29.04 44 44 C29.48 44 14.96 44 0 44 C0 29.48 0 14.96 0 0 Z " fill="#000000" transform="translate(440,528)"/>
<path d="M0 0 C14.52 0 29.04 0 44 0 C44 14.52 44 29.04 44 44 C29.48 44 14.96 44 0 44 C0 29.48 0 14.96 0 0 Z " fill="#FFFFFF" transform="translate(748,484)"/>
<path d="M0 0 C14.52 0 29.04 0 44 0 C44 14.52 44 29.04 44 44 C29.48 44 14.96 44 0 44 C0 29.48 0 14.96 0 0 Z " fill="#FFFFFF" transform="translate(792,440)"/>
<path d="M0 0 C14.52 0 29.04 0 44 0 C44 14.52 44 29.04 44 44 C29.48 44 14.96 44 0 44 C0 29.48 0 14.96 0 0 Z " fill="#FFFFFF" transform="translate(792,352)"/>
<path d="M0 0 C14.52 0 29.04 0 44 0 C44 14.52 44 29.04 44 44 C29.48 44 14.96 44 0 44 C0 29.48 0 14.96 0 0 Z " fill="#FFECB3" transform="translate(528,352)"/>
<path d="M0 0 C14.52 0 29.04 0 44 0 C44 14.52 44 29.04 44 44 C29.48 44 14.96 44 0 44 C0 29.48 0 14.96 0 0 Z " fill="#000000" transform="translate(616,176)"/>
<path d="M0 0 C14.52 0 29.04 0 44 0 C44 14.52 44 29.04 44 44 C29.48 44 14.96 44 0 44 C0 29.48 0 14.96 0 0 Z " fill="#000000" transform="translate(440,176)"/>
<path d="M0 0 C14.52 0 29.04 0 44 0 C44 14.52 44 29.04 44 44 C29.48 44 14.96 44 0 44 C0 29.48 0 14.96 0 0 Z " fill="#000000" transform="translate(704,132)"/>
<path d="M0 0 C14.52 0 29.04 0 44 0 C44 14.52 44 29.04 44 44 C29.48 44 14.96 44 0 44 C0 29.48 0 14.96 0 0 Z " fill="#FFFFFF" transform="translate(968,44)"/>
<path d="M0 0 C14.52 0 29.04 0 44 0 C44 14.52 44 29.04 44 44 C29.48 44 14.96 44 0 44 C0 29.48 0 14.96 0 0 Z " fill="#FFFFFF" transform="translate(1012,0)"/>
</svg>
